<?xml version="1.0" encoding="UTF-8" standalone="no"?>
<svg
   version="1.0"
   width="284.000000pt"
   height="300.000000pt"
   viewBox="0 0 284.000000 300.000000"
   preserveAspectRatio="xMidYMid meet"
   id="svg289"
   sodipodi:docname="icon.svg"
   inkscape:version="1.1.2 (b8e25be833, 2022-02-05)"
   xmlns:inkscape="http://www.inkscape.org/namespaces/inkscape"
   xmlns:sodipodi="http://sodipodi.sourceforge.net/DTD/sodipodi-0.dtd"
   xmlns="http://www.w3.org/2000/svg"
   xmlns:svg="http://www.w3.org/2000/svg">
  <defs
     id="defs293" />
  <sodipodi:namedview
     id="namedview291"
     pagecolor="#ffffff"
     bordercolor="#666666"
     borderopacity="1.0"
     inkscape:pageshadow="2"
     inkscape:pageopacity="0.0"
     inkscape:pagecheckerboard="0"
     inkscape:document-units="pt"
     showgrid="false"
     inkscape:zoom="0.71417785"
     inkscape:cx="162.42453"
     inkscape:cy="244.3369"
     inkscape:window-width="1920"
     inkscape:window-height="1001"
     inkscape:window-x="-9"
     inkscape:window-y="-9"
     inkscape:window-maximized="1"
     inkscape:current-layer="svg289" />
  <g
     transform="translate(0.000000,300.000000) scale(0.100000,-0.100000)"
     fill="#000000"
     stroke="none"
     id="g287"
     style="fill:#ff6600">
    <path
       d="M799 2973 c-6 -16 -44 -125 -84 -243 -40 -118 -119 -347 -174 -509 -56 -162 -101 -296 -101 -298 0 -2 131 -3 291 -3 l291 0 38 27 c37 27 39 32 119 293 157 508 173 554 181 539 4 -8 40 -120 79 -249 40 -129 76 -249 82 -266 l10 -32 53 29 c51 28 54 31 60 77 19 148 162 282 335 315 34 6 60 16 58 22 -2 5 -28 81 -56 168 l-53 157 -559 0 -559 0 -11 -27z"
       id="path267"
       style="fill:#ff6600" />
    <path
       d="M2018 2604 c-4 -4 -24 -8 -43 -11 -32 -3 -117 -41 -153 -68 -74 -55 -125 -144 -124 -220 l0 -51 -119 -59 c-65 -33 -119 -63 -119 -67 0 -4 -3 -7 -7 -6 -20 5 -212 -111 -338 -204 l-80 -58 -497 0 -497 0 10 -28 c23 -59 58 -91 120 -110 64 -18 76 -32 30 -32 -17 0 -33 -5 -36 -10 -4 -6 -10 -8 -15 -5 -17 10 -85 -67 -91 -103 0 -4 -6 -13 -12 -20 -6 -7 -6 -12 -1 -11 34 6 574 -3 574 -10 0 -5 -11 -19 -25 -32 -13 -13 -25 -30 -25 -36 0 -7 -4 -13 -9 -13 -5 0 -13 -10 -17 -22 -3 -12 -14 -29 -22 -38 -14 -13 27 -15 423 -18 290 -1 443 -6 451 -13 7 -6 16 -25 20 -42 3 -18 9 -36 12 -42 4 -5 8 -19 9 -30 2 -11 6 -27 10 -35 8 -18 7 -17 17 -60 5 -19 11 -39 14 -45 4 -5 7 -15 8 -21 5 -32 57 -200 65 -210 5 -6 6 -14 2 -17 -3 -4 -1 -12 5 -19 6 -7 10 -17 11 -23 0 -5 8 -40 17 -77 l17 -66 88 0 87 0 -20 61 c-11 34 -22 69 -25 77 -3 8 -8 24 -10 34 -2 11 -8 25 -13 31 -5 7 -7 15 -4 18 3 3 2 12 -2 19 -5 7 -9 18 -10 23 -4 23 -26 99 -36 124 -6 14 -13 36 -15 48 -2 12 -10 41 -18 64 -9 23 -14 43 -13 44 2 2 36 6 77 10 50 5 72 4 67 -3 -3 -6 -1 -23 5 -39 6 -15 13 -39 15 -52 3 -14 8 -29 12 -35 3 -6 8 -21 10 -34 1 -12 8 -35 14 -50 13 -31 12 -27 22 -72 5 -19 11 -39 14 -45 4 -5 7 -15 8 -20 1 -6 14 -54 29 -106 l28 -96 78 -2 c77 -2 98 6 82 31 -4 7 -8 19 -9 26 -2 8 -6 21 -10 30 -9 20 -8 18 -18 62 -5 19 -11 40 -15 45 -3 6 -6 12 -6 15 -3 21 -19 77 -23 85 -4 6 -7 15 -8 20 -4 23 -26 99 -36 124 -6 14 -13 36 -15 49 -2 12 -9 35 -15 50 -6 15 -12 29 -12 32 -1 3 -5 11 -9 18 -6 8 2 18 23 30 162 88 243 152 323 252 91 114 138 220 186 421 65 270 84 293 254 315 59 7 115 23 122 34 4 6 12 7 18 4 8 -5 9 -4 2 4 -6 6 -19 13 -30 15 -11 2 -27 7 -35 10 -22 9 -76 17 -154 24 -69 6 -69 6 -140 73 -75 71 -163 133 -177 124 -5 -3 -9 0 -9 6 0 6 -5 8 -11 4 -6 -3 -14 -2 -18 4 -3 5 -22 13 -41 17 -51 11 -184 18 -192 9z m185 -31 c-13 -2 -35 -2 -50 0 -16 2 -5 4 22 4 28 0 40 -2 28 -4z m68 -162 c16 -16 29 -35 29 -43 -1 -13 -126 -75 -135 -66 -8 8 54 138 66 138 6 0 24 -13 40 -29z"
       id="path269"
       style="fill:#ff6600" />
    <path
       d="M2345 1592 c-56 -93 -203 -237 -298 -292 -42 -25 -76 -52 -76 -60 0 -8 37 -139 82 -290 l82 -275 297 -3 297 -2 -83 242 c-46 134 -121 353 -166 488 -46 135 -86 248 -89 252 -3 3 -24 -24 -46 -60z"
       id="path271"
       style="fill:#ff6600" />
    <path
       d="M281 1458 c-5 -13 -65 -187 -134 -388 -69 -201 -128 -373 -132 -382 -7 -17 13 -18 334 -18 l340 0 21 68 c11 37 55 180 98 317 l78 250 -228 3 c-125 1 -228 6 -228 10 0 4 17 42 39 85 l39 77 -109 0 c-104 0 -110 -1 -118 -22z"
       id="path273"
       style="fill:#ff6600" />
    <path
       d="M191 498 c-5 -13 -47 -124 -95 -247 -47 -123 -86 -227 -86 -232 0 -5 33 -9 73 -9 l73 0 18 50 18 51 90 -3 90 -3 17 -45 17 -45 78 -3 c77 -3 78 -3 72 20 -3 13 -45 127 -94 253 l-89 230 -87 3 c-82 3 -87 2 -95 -20z m118 -197 c12 -38 21 -72 21 -75 0 -7 -85 -8 -92 -1 -7 7 35 145 44 145 3 0 15 -31 27 -69z"
       id="path275"
       style="fill:#ff6600" />
    <path
       d="M1412 263 l3 -248 70 0 70 0 1 105 c0 130 17 169 71 170 42 0 53 -34 53 -163 l0 -118 73 3 72 3 3 95 c6 174 -16 247 -83 279 -43 21 -107 18 -149 -7 l-36 -21 0 74 0 75 -75 0 -75 0 2 -247z"
       id="path277"
       style="fill:#ff6600" />
    <path
       d="M1177 396 c-86 -23 -132 -73 -143 -157 -20 -142 84 -238 246 -227 37 3 72 8 79 12 12 8 16 106 3 106 -4 0 -23 -4 -42 -10 -44 -13 -104 3 -125 33 -17 24 -20 79 -5 106 20 38 92 50 153 26 15 -6 17 0 17 48 l0 55 -50 11 c-62 13 -72 13 -133 -3z"
       id="path279"
       style="fill:#ff6600" />
    <path
       d="M1980 399 c-60 -14 -70 -24 -70 -70 0 -44 1 -45 61 -23 50 18 103 13 130 -12 29 -26 23 -34 -26 -34 -74 0 -142 -19 -175 -50 -25 -24 -30 -35 -30 -77 0 -58 19 -90 66 -109 47 -20 103 -17 149 6 48 24 45 24 45 0 0 -18 7 -20 60 -20 l60 0 0 144 c0 132 -2 146 -23 176 -12 19 -37 42 -55 53 -39 23 -130 30 -192 16z m140 -235 c0 -48 -61 -84 -99 -58 -26 18 -27 49 -3 63 9 6 36 11 60 11 32 0 42 -4 42 -16z"
       id="path281"
       style="fill:#ff6600" />
    <path
       d="M2527 395 c-21 -7 -46 -20 -56 -29 -24 -22 -31 -20 -31 9 0 25 -1 26 -62 23 -58 -3 -63 -5 -62 -25 0 -13 1 -99 2 -193 l2 -170 69 0 69 0 4 119 c2 101 6 122 22 140 27 30 76 25 93 -9 8 -16 13 -67 13 -137 l0 -113 71 0 71 0 -4 153 c-2 125 -6 158 -21 180 -33 51 -116 75 -180 52z"
       id="path283"
       style="fill:#ff6600" />
    <path
       d="M580 260 c0 -161 10 -198 62 -230 44 -27 121 -27 171 0 46 25 47 25 47 0 0 -18 7 -20 65 -20 l65 0 0 195 0 195 -70 0 -70 0 0 -92 c0 -144 -23 -195 -83 -186 -36 5 -47 44 -47 166 l0 112 -70 0 -70 0 0 -140z"
       id="path285"
       style="fill:#ff6600" />
  </g>
  <g
     inkscape:groupmode="layer"
     id="layer1"
     inkscape:label="Layer 1" />
  <polygon
     style="fill:#554f4e"
     points="256,249.395 288.658,216.737 256,151.421 "
     id="polygon357"
     transform="matrix(0.42928668,0,0,0.41117723,27.28546,103.44182)" />
  <polygon
     style="fill:#7f7774"
     points="247.835,249.395 272.33,216.737 256,151.421 223.342,216.737 "
     id="polygon359"
     transform="matrix(0.42928668,0,0,0.41117723,27.28546,103.44182)" />
  <polygon
     style="fill:#ffab97"
     points="321.316,282.054 288.658,216.737 272.33,216.737 272.33,314.712 "
     id="polygon361"
     transform="matrix(0.42928668,0,0,0.41117723,27.28546,103.44182)" />
  <polygon
     style="fill:#ffcdc1"
     points="223.342,216.737 190.684,282.054 256,351.116 288.658,282.054 272.33,216.737 "
     id="polygon363"
     transform="matrix(0.42928668,0,0,0.41117723,27.28546,103.44182)" />
  <polygon
     style="fill:#f5ac51"
     points="321.316,425.941 321.316,282.054 288.658,282.054 266.886,425.941 "
     id="polygon365"
     transform="matrix(0.42928668,0,0,0.41117723,27.28546,103.44182)" />
  <polygon
     style="fill:#ffeab2"
     points="190.684,425.941 190.684,282.054 256,282.054 275.594,314.713 275.594,425.941 "
     id="polygon367"
     transform="matrix(0.42928668,0,0,0.41117723,27.28546,103.44182)" />
  <rect
     x="137.18283"
     y="219.41765"
     style="fill:#ffd159;stroke-width:0.420134"
     width="14.019644"
     height="59.161411"
     id="rect369" />
  <path
     style="fill:#d8d1d0;stroke-width:0.420134"
     d="m 243.57296,192.06778 v 33.27164 l -21.75024,2.08303 c -2.1885,9.1195 -5.9439,17.6617 -10.97557,25.36141 l 13.84707,16.21025 -24.5655,23.5292 -16.9242,-13.26293 c -8.03882,4.81982 -16.95682,8.41639 -26.4784,10.51257 l -2.17477,20.83271 h -34.73702 l -2.17476,-20.83271 c -9.52115,-2.09618 -18.43958,-5.69316 -26.47841,-10.51257 l -16.92419,13.26293 -24.5655,-23.5292 13.84707,-16.21025 c -5.0321,-7.69971 -8.78707,-16.2415 -10.97557,-25.36141 l -21.75024,-2.08344 v -33.27164 l 21.75024,-2.08302 c 2.1885,-9.1195 5.9439,-17.66171 10.97557,-25.36141 l -13.84707,-16.21026 24.5655,-23.5292 16.92419,13.26293 c 8.03883,-4.81982 16.95683,-8.41639 26.47841,-10.51257 l 2.17476,-20.8327 h 34.73702 l 2.17477,20.8327 c 9.52115,2.09618 18.43958,5.69316 26.4784,10.51257 l 16.9242,-13.26293 24.5655,23.5292 -13.84707,16.21026 c 5.0321,7.6997 8.78707,16.2415 10.97557,25.36141 z M 205.4596,208.7036 c 0,-36.11904 -30.56693,-65.3965 -68.27676,-65.3965 -37.70553,0 -68.27675,29.27746 -68.27675,65.3965 0,36.11904 30.57122,65.3961 68.27675,65.3961 37.70983,0 68.27676,-29.27747 68.27676,-65.3961 z"
     id="path371" />
  <path
     style="fill:#7f7774;stroke-width:0.420134"
     d="m 137.18284,138.82773 c 40.29242,0 72.95298,31.28278 72.95298,69.87546 0,38.59269 -32.66056,69.87587 -72.95298,69.87587 l -4.67665,-6.71863 4.67665,-6.71905 c 32.5438,0 58.92389,-25.26725 58.92389,-56.43819 0,-31.17093 -26.38009,-56.43777 -58.92389,-56.43777 l -4.67665,-6.71864 z"
     id="path373" />
  <path
     style="fill:#a99e9b;stroke-width:0.420134"
     d="m 137.18284,138.82773 v 13.43769 c -32.54379,0 -58.92388,25.26725 -58.92388,56.43818 0,31.17094 26.38009,56.43778 58.92388,56.43778 v 13.43768 c -40.28769,0 -72.95297,-31.28277 -72.95297,-69.87546 0,-38.59268 32.66485,-69.87587 72.95297,-69.87587 z"
     id="path375" />
  <path
     d="m 243.92154,188.72327 -19.28227,-1.8466 c -2.08977,-7.70587 -5.2798,-15.07335 -9.50956,-21.96303 l 12.27889,-14.37476 c 1.14061,-1.3355 1.04016,-3.28243 -0.23439,-4.50239 l -24.56422,-23.52838 c -1.27369,-1.21997 -3.30636,-1.31783 -4.70111,-0.22451 l -15.00787,11.76091 c -7.19355,-4.05133 -14.88465,-7.1072 -22.93034,-9.1084 l -1.92793,-18.46885 c -0.17944,-1.7179 -1.68838,-3.02585 -3.4901,-3.02585 h -34.73917 c -1.80214,0 -3.31066,1.30795 -3.4901,3.02462 l -1.92792,18.46885 c -8.04527,2.00161 -15.73679,5.05748 -22.93035,9.10839 l -15.00786,-11.7609 c -1.39518,-1.09291 -3.42657,-0.99628 -4.70112,0.2245 l -24.56507,23.52921 c -1.27455,1.22079 -1.37501,3.16689 -0.23439,4.50239 l 12.27889,14.37476 c -4.22977,6.88927 -7.4198,14.25675 -9.50956,21.96303 l -19.28227,1.8466 c -1.7927,0.17228 -3.15826,1.61757 -3.15826,3.34328 v 33.2741 c 0,1.72572 1.36556,3.17141 3.15869,3.34288 l 19.28227,1.84659 c 2.08976,7.70587 5.27979,15.07335 9.50956,21.96303 L 46.95709,266.8675 c -1.14062,1.3355 -1.04016,3.28243 0.23439,4.50239 l 24.56464,23.52838 c 1.27455,1.22079 3.30594,1.31783 4.70112,0.22451 L 91.4651,283.36187 c 7.19356,4.05133 14.88466,7.1072 22.93035,9.1084 l 1.92792,18.46885 c 0.17944,1.71708 1.68753,3.02462 3.4901,3.02462 h 34.73917 c 1.80214,0 3.31066,-1.30795 3.4901,-3.02462 l 1.92793,-18.46885 c 8.04526,-2.00161 15.73679,-5.05748 22.93034,-9.1084 l 15.00787,11.76091 c 1.39389,1.09249 3.42656,0.99587 4.70111,-0.22451 l 24.56465,-23.52838 c 1.27455,-1.22078 1.375,-3.16689 0.23439,-4.50239 l -12.27889,-14.37476 c 4.22976,-6.88927 7.41979,-14.25674 9.50956,-21.96303 l 19.28227,-1.84659 c 1.79313,-0.17147 3.15869,-1.61716 3.15869,-3.34288 v -33.2741 c -4.3e-4,-1.72571 -1.36599,-3.171 -3.15912,-3.34287 z m -3.85585,33.57673 -18.59155,1.78081 c -1.49692,0.1435 -2.73198,1.18501 -3.06897,2.59 -2.06788,8.61334 -5.61164,16.79865 -10.53298,24.32772 -0.79847,1.2216 -0.69416,2.79477 0.25843,3.90988 l 11.8393,13.86037 -20.07602,19.22871 -14.4704,-11.34027 c -1.16379,-0.91323 -2.80667,-1.01232 -4.08208,-0.24712 -7.86153,4.71333 -16.40691,8.10842 -25.39918,10.08906 -1.46644,0.32277 -2.55426,1.50532 -2.70408,2.9395 l -1.85967,17.80727 h -28.3913 l -1.85924,-17.80727 c -0.14982,-1.43377 -1.2372,-2.61673 -2.70408,-2.9395 -8.99227,-1.98064 -17.53808,-5.37491 -25.3996,-10.08906 -1.27498,-0.7652 -2.91786,-0.66487 -4.08209,0.24712 l -14.47039,11.34027 -20.07602,-19.22871 11.8393,-13.86037 c 0.95258,-1.11552 1.0569,-2.68828 0.25843,-3.90988 -4.92092,-7.52907 -8.46554,-15.71396 -10.53298,-24.32772 -0.33785,-1.40458 -1.57205,-2.4465 -3.06897,-2.59 L 34.3,222.3 v -27.19362 l 18.59155,-1.78081 c 1.49692,-0.1435 2.73198,-1.18501 3.06897,-2.59 2.06787,-8.61334 5.61163,-16.79865 10.53298,-24.32813 0.79847,-1.2216 0.69415,-2.79477 -0.25843,-3.90988 l -11.8393,-13.86037 20.07602,-19.22871 14.47039,11.34027 c 1.1638,0.91282 2.80711,1.01232 4.08209,0.24712 7.86152,-4.71332 16.40691,-8.10842 25.3996,-10.08906 1.46645,-0.32277 2.55426,-1.50532 2.70408,-2.9395 l 1.85967,-17.80644 h 28.3913 l 1.85924,17.80726 c 0.14982,1.43378 1.23721,2.61673 2.70408,2.93951 8.99227,1.98064 17.53808,5.37491 25.39918,10.08905 1.27541,0.7652 2.91786,0.66529 4.08208,-0.24712 l 14.4704,-11.34026 20.07602,19.2287 -11.8393,13.86037 c -0.95259,1.11553 -1.0569,2.68828 -0.25843,3.90989 4.92091,7.52906 8.46553,15.71396 10.53298,24.32812 0.33742,1.40458 1.57205,2.44651 3.06897,2.59001 l 18.59155,1.7808 z"
     id="path377"
     style="stroke-width:0.420134" />
  <path
     d="m 137.1837,135.46841 c -19.14018,0 -37.45569,6.80745 -51.57193,19.16868 -14.02393,12.28021 -22.73759,28.98141 -24.53544,47.02757 -0.18417,1.8466 1.2299,3.48719 3.15783,3.66359 1.93909,0.17722 3.64078,-1.17802 3.82494,-3.02544 3.41498,-34.27163 33.13192,-60.11576 69.1246,-60.11576 38.29237,0 69.44571,29.83913 69.44571,66.51614 0,36.67701 -31.15334,66.51614 -69.44571,66.51614 -35.99354,0 -65.71048,-25.84495 -69.1246,-60.1174 -0.18416,-1.84742 -1.90388,-3.20101 -3.82451,-3.02544 -1.92879,0.17639 -3.34243,1.81617 -3.15869,3.66359 1.79785,18.04616 10.51065,34.74818 24.53459,47.02881 14.11709,12.36122 32.43218,19.16908 51.57278,19.16908 42.16025,0 76.46068,-32.85306 76.46068,-73.23519 0,-40.38213 -34.30001,-73.23437 -76.46025,-73.23437 z"
     id="path379"
     style="stroke-width:0.420134" />
  <path
     d="m 137.18284,268.5007 c 34.4245,0 62.43116,-26.82521 62.43116,-59.79751 0,-32.9723 -28.00666,-59.79709 -62.43116,-59.79709 -34.4245,0 -62.43116,26.8252 -62.43116,59.7975 0,32.9723 28.00666,59.7971 62.43116,59.7971 z m -11.85217,-72.58183 h 23.70435 l 10.51237,20.13781 h -44.7291 z m 3.50727,-6.71864 8.3449,-15.98533 8.34491,15.98533 h -16.68938 v 0 z m -16.18711,33.5755 h 49.0636 v 33.51259 c -6.40925,3.04353 -13.51609,4.93289 -21.02475,5.38437 v -28.82805 c 0,-1.85523 -1.5699,-3.35932 -3.50727,-3.35932 -1.93737,0 -3.50727,1.50409 -3.50727,3.35932 v 28.82805 c -7.50865,-0.45148 -14.61549,-2.34084 -21.02474,-5.38437 z m 24.53201,-67.151 c 30.55663,0 55.41619,23.81087 55.41619,53.07846 0,18.04863 -9.45633,34.01875 -23.86963,43.61316 V 219.416 c 0,-0.12582 -0.009,-0.24958 -0.0223,-0.37129 -0.003,-0.03 -0.01,-0.0596 -0.0146,-0.0896 -0.0137,-0.0942 -0.0296,-0.18667 -0.051,-0.27754 -0.008,-0.0329 -0.0172,-0.0654 -0.0262,-0.0983 -0.024,-0.0884 -0.0502,-0.17516 -0.0807,-0.26028 -0.0116,-0.0325 -0.0245,-0.0645 -0.0369,-0.0966 -0.0343,-0.0855 -0.0717,-0.169 -0.1129,-0.25123 -0.009,-0.0189 -0.0159,-0.0386 -0.0258,-0.0572 l -28.0393,-53.7133 c -0.59457,-1.13814 -1.80859,-1.85688 -3.1368,-1.85688 -1.32864,0 -2.5431,0.71874 -3.1368,1.85688 l -28.03929,53.71331 c -0.01,0.0189 -0.0163,0.0386 -0.0257,0.0572 -0.0408,0.0818 -0.0781,0.16529 -0.11205,0.2504 -0.0125,0.0321 -0.0254,0.0646 -0.0369,0.097 -0.0309,0.0851 -0.0575,0.17187 -0.0807,0.26028 -0.009,0.0325 -0.0189,0.065 -0.0262,0.0983 -0.0215,0.0913 -0.0373,0.1842 -0.0511,0.27754 -0.004,0.03 -0.0107,0.0596 -0.0146,0.0896 -0.0142,0.12212 -0.0223,0.24588 -0.0223,0.37129 v 32.90035 C 91.22353,242.72193 81.7672,226.75181 81.7672,208.70318 81.76677,179.436 106.62633,155.62472 137.18296,155.62472 Z"
     id="path381"
     style="stroke-width:0.420134" />
</svg>
